<svg xmlns="http://www.w3.org/2000/svg" viewBox="0 0 64 64"><g data-name="29-Bell"><path fill="#598ede" d="M63,19V35H61a2.006,2.006,0,0,1-2-2V21a2.006,2.006,0,0,1,2-2Z"></path><circle cx="28" cy="28" r="7" fill="#598ede"></circle><path fill="#4c76bd" d="M23,25a6.99,6.99,0,0,1,.374-2.247,7,7,0,1,0,11.252,7.494A6.995,6.995,0,0,1,23,25Z"></path><path fill="#4c76bd" d="M44.98,48.98a26.957,26.957,0,0,1-33.96,0L11,49V59a4.29,4.29,0,0,0,4.53,4H40.47A4.29,4.29,0,0,0,45,59V49Z"></path><path fill="#edf4fa" d="M28,1A26.992,26.992,0,1,1,1,28,27,27,0,0,1,28,1Zm7,27a7,7,0,1,0-7,7A6.995,6.995,0,0,0,35,28Z"></path><path fill="#c1cfe8" d="M34,47A27.024,27.024,0,0,1,7,20,26.881,26.881,0,0,1,9.768,8.089,26.995,26.995,0,1,0,52.249,39.882c-.412.378-.833.746-1.269,1.1A26.81,26.81,0,0,1,34,47Z"></path><path fill="#c1cfe8" d="M28,19a9,9,0,1,0,9,9A9,9,0,0,0,28,19Zm0,16a7,7,0,1,1,7-7A6.995,6.995,0,0,1,28,35Z"></path><path fill="#4c76bd" d="M61.5,31A1.5,1.5,0,0,1,60,29.5V21a2,2,0,0,1,2-2H61a2.006,2.006,0,0,0-2,2V33a2.006,2.006,0,0,0,2,2h2V29.5A1.5,1.5,0,0,1,61.5,31Z"></path><path fill="#234275" d="M44.98,48.98a26.957,26.957,0,0,1-33.96,0L11,49V59a4.29,4.29,0,0,0,4.53,4H20V59.094a1.006,1.006,0,0,1,1.274-.962A26.832,26.832,0,0,0,45,52.964h0V49Z"></path><rect width="2" height="2" x="27" y="58" fill="#edf4fa"></rect><rect width="2" height="2" x="23" y="58" fill="#edf4fa"></rect><rect width="2" height="2" x="31" y="58" fill="#edf4fa"></rect><rect width="2" height="1" x="31" y="60" fill="#234275"></rect><rect width="2" height="1" x="27" y="60" fill="#234275"></rect><rect width="2" height="1" x="23" y="60" fill="#234275"></rect><rect width="2" height="1" x="31" y="59" fill="#c1cfe8"></rect><rect width="2" height="1" x="27" y="59" fill="#c1cfe8"></rect><rect width="2" height="1" x="23" y="59" fill="#c1cfe8"></rect><path fill="#8394b2" d="M58,56H45V54H58a3,3,0,0,0,3-3V35h2V51A5.006,5.006,0,0,1,58,56Z"></path><path fill="#5c6979" d="M61,35V51a3,3,0,0,1-3,3H45v2h3a1,1,0,0,1,1-1h9a4,4,0,0,0,4-4V38a1,1,0,0,1,1-1V35Z"></path><path fill="#fff" d="M51,30a2,2,0,0,1-2-2A21.041,21.041,0,0,0,36.575,8.825a2,2,0,1,1,1.635-3.65A25.046,25.046,0,0,1,53,28,2,2,0,0,1,51,30Z"></path><path fill="#fff" d="M30,7.086a1.682,1.682,0,0,1-.173-.008C29.222,7.026,28.606,7,28,7a2,2,0,0,1,0-4c.721,0,1.451.031,2.171.094A2,2,0,0,1,30,7.086Z"></path><path fill="#ffd794" d="M54,10a1,1,0,0,1-.707-1.707l5-5a1,1,0,1,1,1.414,1.414l-5,5A1,1,0,0,1,54,10Z"></path><path fill="#ffd794" d="M61,14H55a1,1,0,0,1,0-2h6a1,1,0,0,1,0,2Z"></path><path fill="#ffd794" d="M50,8a1,1,0,0,1-1-1V2a1,1,0,0,1,2,0V7A1,1,0,0,1,50,8Z"></path></g></svg>